#!OML:ASF X:\für Bonn\!DataBase\2005_08_12_Daniel\c3d\Daniel.ASF
:FULLY-SPECIFIED
:DEGREES
505
root 14.9845 1.27421 1.01111 -722.741 -83.4736 -98.2389
lowerback 15.1852 -3.31163 1.11372
upperback 1.25552 -4.35407 -0.363101
thorax -7.27809 -2.21044 -0.0837427
lowerneck -11.7854 0.588919 -10.1522
upperneck 4.45633 1.97578 4.01915
head 3.08834 0.962526 2.97259
rclavicle 3.77691e-014 -3.41661e-014
rhumerus -49.1064 -16.9548 -61.814
rradius 11.7712
rwrist 72.8703
rhand -7.73765 -346.077
rfingers 7.12502
rthumb 18.1613 -375.249
lclavicle 3.77691e-014 -3.41661e-014
lhumerus -407.618 14.4178 -293.129
lradius 15.0073
lwrist -61.1832
lhand -6.05419 351.7
lfingers 7.12502
lthumb 19.7803 380.713
rfemur 190.213 -196.567 199.507
rtibia 17.5595
rfoot -8.70202 -33.1521
rtoes 24.8998
lfemur -0.267027 -22.9255 -17.6307
ltibia 29.7605
lfoot 0.52629 29.0247
ltoes 13.1291
506
root 14.984 1.27417 1.0111 -722.752 -83.4737 -98.2475
lowerback 15.1925 -3.31786 1.09373
upperback 1.28219 -4.36626 -0.354108
thorax -7.25144 -2.21625 -0.0609672
lowerneck -11.8718 0.588214 -10.13
upperneck 4.44949 1.98176 3.99133
head 3.10008 0.964958 2.96157
rclavicle 2.50469e-014 -1.98163e-014
rhumerus -49.0822 -17.1019 -61.6842
rradius 11.7402
rwrist 73.1446
rhand -7.775 -346.062
rfingers 7.12502
rthumb 18.1253 -375.237
lclavicle 2.50469e-014 -1.98163e-014
lhumerus -407.614 14.5721 -293.223
lradius 14.9968
lwrist -61.3956
lhand -6.1013 351.648
lfingers 7.12502
lthumb 19.735 380.666
rfemur 190.239 -196.567 199.514
rtibia 17.5527
rfoot -8.6841 -33.1311
rtoes 24.9067
lfemur -0.237394 -22.9307 -17.6415
ltibia 29.7608
lfoot 0.498382 29.042
ltoes 13.2271
507
root 14.984 1.27376 1.01005 -722.779 -83.4669 -98.2206
lowerback 15.1748 -3.32327 1.06908
upperback 1.30669 -4.37848 -0.350262
thorax -7.21333 -2.22198 -0.0424943
lowerneck -11.9283 0.58981 -10.0814
upperneck 4.43786 1.9847 3.9517
head 3.10618 0.965809 2.94217
rclavicle 8.3092e-014 -1.06847e-014
rhumerus -48.9832 -16.9859 -61.834
rradius 11.7416
rwrist 73.0068
rhand -7.7479 -346.086
rfingers 7.12502
rthumb 18.1514 -375.259
lclavicle 8.3092e-014 -1.06847e-014
lhumerus -407.579 14.5022 -293.125
lradius 15.0207
lwrist -61.2629
lhand -6.11021 351.694
lfingers 7.12502
lthumb 19.7264 380.713
rfemur 190.25 -196.579 199.52
rtibia 17.5372
rfoot -8.73538 -33.1204
rtoes 25.0155
lfemur -0.239303 -22.9247 -17.6389
ltibia 29.7658
lfoot 0.508275 29.0341
ltoes 13.1144
508
root 14.9833 1.27338 1.00989 -722.649 -83.466 -98.3709
lowerback 15.1656 -3.32414 1.05069
upperback 1.34754 -4.38251 -0.319845
thorax -7.16057 -2.22398 -0.00125544
lowerneck -11.9879 0.588855 -10.06
upperneck 4.38748 1.98931 3.89166
head 3.10078 0.966561 2.92051
rclavicle -9.30312e-014 1.09071e-013
rhumerus -48.8883 -17.0024 -61.8193
rradius 11.7315
rwrist 73.0574
rhand -7.69084 -346.069
rfingers 7.12502
rthumb 18.2063 -375.236
lclavicle -9.30312e-014 1.09071e-013
lhumerus -407.533 14.5734 -293.095
lradius 15.0169
lwrist -61.3458
lhand -6.16698 351.701
lfingers 7.12502
lthumb 19.6718 380.726
rfemur 190.277 -196.581 199.549
rtibia 17.5296
rfoot -8.8207 -33.1002
rtoes 25.1629
lfemur -0.210644 -22.9426 -17.6279
ltibia 29.7694
lfoot 0.414872 29.0573
ltoes 13.1713
509
root 14.9838 1.2735 1.00899 -722.533 -83.4747 -98.5004
lowerback 15.1545 -3.33413 1.01579
upperback 1.3754 -4.40108 -0.286562
thorax -7.11948 -2.23243 0.0557036
lowerneck -12.0311 0.602798 -10.0752
upperneck 4.35792 2.01519 3.86663
head 3.0969 0.978321 2.91671
rclavicle -6.63941e-014 3.8117e-014
rhumerus -48.7927 -16.959 -61.8342
rradius 11.7134
rwrist 73.1018
rhand -7.68185 -346.058
rfingers 7.12502
rthumb 18.2149 -375.225
lclavicle -6.63941e-014 3.8117e-014
lhumerus -407.539 14.7234 -293.126
lradius 15.0061
lwrist -61.4613
lhand -6.25484 351.703
lfingers 7.12502
lthumb 19.5874 380.736
rfemur 190.286 -196.576 199.568
rtibia 17.5309
rfoot -8.79303 -33.0676
rtoes 25.1681
lfemur -0.191696 -22.8897 -17.6025
ltibia 29.7694
lfoot 0.420524 29.0481
ltoes 13.1561
510
root 14.9831 1.27246 1.00837 -722.652 -83.4545 -98.4
lowerback 15.1604 -3.34537 0.97824
upperback 1.40553 -4.42321 -0.278604
thorax -7.08721 -2.24279 0.0890386
lowerneck -12.0875 0.614368 -10.0047
upperneck 4.3299 2.03017 3.78758
head 3.09779 0.983726 2.88213
rclavicle 4.37326e-015 -2.29721e-014
rhumerus -48.6775 -16.8658 -61.9496
rradius 11.6896
rwrist 72.9711
rhand -7.65937 -346.08
rfingers 7.12502
rthumb 18.2366 -375.246
lclavicle 4.37326e-015 -2.29721e-014
lhumerus -407.513 14.8122 -293.159
lradius 15.0012
lwrist -61.592
lhand -6.30566 351.68
lfingers 7.12502
lthumb 19.5385 380.718
rfemur 190.32 -196.582 199.567
rtibia 17.5165
rfoot -8.9235 -33.0297
rtoes 25.2562
lfemur -0.182538 -22.8703 -17.6084
ltibia 29.7774
lfoot 0.487143 29.0372
ltoes 13.1572
511
root 14.9835 1.27261 1.00762 -722.702 -83.4624 -98.3588
lowerback 15.1373 -3.34684 0.943
upperback 1.44136 -4.43201 -0.269124
thorax -7.03268 -2.24684 0.117794
lowerneck -12.0955 0.619612 -9.97421
upperneck 4.25154 2.03498 3.74537
head 3.07554 0.986012 2.86377
rclavicle -1.22054e-013 1.11108e-013
rhumerus -48.5993 -16.8533 -61.9884
rradius 11.6781
rwrist 72.9366
rhand -7.60588 -346.084
rfingers 7.12502
rthumb 18.288 -375.244
lclavicle -1.22054e-013 1.11108e-013
lhumerus -407.478 14.8651 -293.138
lradius 15.0034
lwrist -61.6073
lhand -6.3651 351.717
lfingers 7.12502
lthumb 19.4813 380.761
rfemur 190.331 -196.577 199.562
rtibia 17.5095
rfoot -8.89975 -33.0163
rtoes 25.3105
lfemur -0.166052 -22.8226 -17.6072
ltibia 29.7811
lfoot 0.469324 29.0247
ltoes 13.2137
512
root 14.9837 1.27193 1.00743 -722.427 -83.4617 -98.6588
lowerback 15.1419 -3.35913 0.96678
upperback 1.46627 -4.44517 -0.262492
thorax -7.00994 -2.25456 0.113649
lowerneck -12.0855 0.63399 -9.9142
upperneck 4.21164 2.04629 3.70284
head 3.06204 0.991294 2.8412
rclavicle -6.48038e-014 3.48494e-014
rhumerus -48.5582 -16.8658 -62.0065
rradius 11.6637
rwrist 72.9421
rhand -7.60253 -346.106
rfingers 7.12502
rthumb 18.2913 -375.266
lclavicle -6.48038e-014 3.48494e-014
lhumerus -407.492 15.0488 -293.276
lradius 14.9899
lwrist -61.8657
lhand -6.39821 351.717
lfingers 7.12502
lthumb 19.4495 380.764
rfemur 190.358 -196.544 199.599
rtibia 17.5047
rfoot -8.95253 -32.9663
rtoes 25.3635
lfemur -0.154968 -22.7392 -17.5509
ltibia 29.7872
lfoot 0.600229 28.9842
ltoes 13.092
513
root 14.983 1.27155 1.00624 -722.446 -83.4556 -98.6605
lowerback 15.1266 -3.35865 0.942719
upperback 1.5083 -4.44969 -0.253755
thorax -6.95392 -2.25697 0.13468
lowerneck -12.1016 0.634999 -9.89146
upperneck 4.15984 2.04737 3.66622
head 3.04933 0.991407 2.82596
rclavicle 2.3059e-014 8.70925e-015
rhumerus -48.4714 -16.7999 -62.0916
rradius 11.6552
rwrist 72.8444
rhand -7.57441 -346.104
rfingers 7.12502
rthumb 18.3183 -375.262
lclavicle 2.3059e-014 8.70925e-015
lhumerus -407.46 15.1441 -293.305
lradius 14.9913
lwrist -62.0154
lhand -6.4602 351.714
lfingers 7.12502
lthumb 19.3899 380.768
rfemur 190.384 -196.529 199.606
rtibia 17.4961
rfoot -8.93121 -32.9371
rtoes 25.3715
lfemur -0.13065 -22.7194 -17.5439
ltibia 29.7921
lfoot 0.529355 28.9902
ltoes 13.1585
514
root 14.9839 1.27151 1.00555 -722.589 -83.4518 -98.5149
lowerback 15.0942 -3.36765 0.898211
upperback 1.54157 -4.47009 -0.243627
thorax -6.89638 -2.26653 0.171186
lowerneck -12.1429 0.650175 -9.87585
upperneck 4.14071 2.07129 3.62261
head 3.04901 1.00165 2.81152
rclavicle 8.8658e-014 -1.11928e-013
rhumerus -48.3609 -16.6759 -62.2361
rradius 11.6444
rwrist 72.6429
rhand -7.58268 -346.175
rfingers 7.12502
rthumb 18.3103 -375.333
lclavicle 8.8658e-014 -1.11928e-013
lhumerus -407.441 15.2854 -293.356
lradius 14.9863
lwrist -62.1762
lhand -6.51135 351.71
lfingers 7.12502
lthumb 19.3407 380.769
rfemur 190.398 -196.536 199.593
rtibia 17.4694
rfoot -9.00553 -32.8971
rtoes 25.4775
lfemur -0.149875 -22.6416 -17.535
ltibia 29.8071
lfoot 0.643613 28.9591
ltoes 13.1048
515
root 14.984 1.2699 1.00477 -722.582 -83.4518 -98.541
lowerback 15.0957 -3.36131 0.890658
upperback 1.57003 -4.46346 -0.236788
thorax -6.86554 -2.26363 0.180217
lowerneck -12.0819 0.647208 -9.87562
upperneck 4.04416 2.06228 3.58795
head 3.01086 0.997097 2.79868
rclavicle 3.97569e-014 -9.65969e-014
rhumerus -48.3557 -16.888 -62.0624
rradius 11.6109
rwrist 72.8717
rhand -7.55639 -346.188
rfingers 7.12502
rthumb 18.3356 -375.344
lclavicle 3.97569e-014 -9.65969e-014
lhumerus -407.435 15.3643 -293.373
lradius 15.0116
lwrist -62.3393
lhand -6.57332 351.735
lfingers 7.12502
lthumb 19.2811 380.799
rfemur 190.412 -196.467 199.581
rtibia 17.4639
rfoot -8.95939 -32.8411
rtoes 25.534
lfemur -0.140459 -22.5645 -17.5074
ltibia 29.8152
lfoot 0.663486 28.9519
ltoes 13.1841
516
root 14.9843 1.27006 1.00376 -722.46 -83.4541 -98.6746
lowerback 15.0583 -3.35846 0.891875
upperback 1.62008 -4.46112 -0.231549
thorax -6.7909 -2.26369 0.180231
lowerneck -12.1256 0.648444 -9.82782
upperneck 4.0246 2.06443 3.52745
head 3.0128 0.996474 2.77276
rclavicle -9.54166e-015 4.24654e-014
rhumerus -48.2657 -16.829 -62.1919
rradius 11.6233
rwrist 72.714
rhand -7.54475 -346.262
rfingers 7.12502
rthumb 18.3468 -375.416
lclavicle -9.54166e-015 4.24654e-014
lhumerus -407.377 15.3755 -293.329
lradius 15.0609
lwrist -62.3524
lhand -6.57771 351.757
lfingers 7.12502
lthumb 19.2769 380.822
rfemur 190.438 -196.487 199.612
rtibia 17.443
rfoot -9.00725 -32.8252
rtoes 25.5636
lfemur -0.139195 -22.4897 -17.4651
ltibia 29.8322
lfoot 0.704013 28.9092
ltoes 13.2462
517
root 14.9847 1.269 1.00326 -722.512 -83.4524 -98.645
lowerback 15.0576 -3.35674 0.880874
upperback 1.65772 -4.46211 -0.232787
thorax -6.74955 -2.26475 0.183758
lowerneck -12.1111 0.650075 -9.815
upperneck 3.96949 2.06439 3.49561
head 2.99415 0.996076 2.76019
rclavicle -1.47101e-014 6.76613e-014
rhumerus -48.1888 -16.7134 -62.3585
rradius 11.6439
rwrist 72.4939
rhand -7.51835 -346.309
rfingers 7.12502
rthumb 18.3722 -375.462
lclavicle -1.47101e-014 6.76613e-014
lhumerus -407.357 15.4107 -293.326
lradius 15.1186
lwrist -62.4709
lhand -6.59181 351.765
lfingers 7.12502
lthumb 19.2634 380.83
rfemur 190.464 -196.486 199.615
rtibia 17.4351
rfoot -9.02836 -32.798
rtoes 25.5494
lfemur -0.130966 -22.3952 -17.4434
ltibia 29.8488
lfoot 0.7392 28.8868
ltoes 13.3682
